# Rhino

v 0 50 0
v 0 -50 0
v 0 50 0
v -17.7 46.2 -7.32
v -32.7 35.4 -13.5
v -42.7 19.1 -17.7
v -46.2 0 -19.1
v -42.7 -19.1 -17.7
v -32.7 -35.4 -13.5
v -17.7 -46.2 -7.32
v 0 -50 0
v 0 50 0
v -13.5 46.2 -13.5
v -25 35.4 -25
v -32.7 19.1 -32.7
v -35.4 0 -35.4
v -32.7 -19.1 -32.7
v -25 -35.4 -25
v -13.5 -46.2 -13.5
v 0 -50 0
v 0 50 0
v -7.32 46.2 -17.7
v -13.5 35.4 -32.7
v -17.7 19.1 -42.7
v -19.1 0 -46.2
v -17.7 -19.1 -42.7
v -13.5 -35.4 -32.7
v -7.32 -46.2 -17.7
v 0 -50 0
v 0 50 0
v -3.51e-15 46.2 -19.1
v -6.49e-15 35.4 -35.4
v -8.49e-15 19.1 -46.2
v -9.18e-15 0 -50
v -8.49e-15 -19.1 -46.2
v -6.49e-15 -35.4 -35.4
v -3.51e-15 -46.2 -19.1
v 0 -50 0
v 0 50 0
v 7.32 46.2 -17.7
v 13.5 35.4 -32.7
v 17.7 19.1 -42.7
v 19.1 0 -46.2
v 17.7 -19.1 -42.7
v 13.5 -35.4 -32.7
v 7.32 -46.2 -17.7
v 0 -50 0
v 0 50 0
v 13.5 46.2 -13.5
v 25 35.4 -25
v 32.7 19.1 -32.7
v 35.4 0 -35.4
v 32.7 -19.1 -32.7
v 25 -35.4 -25
v 13.5 -46.2 -13.5
v 0 -50 0
v 0 50 0
v 17.7 46.2 -7.32
v 32.7 35.4 -13.5
v 42.7 19.1 -17.7
v 46.2 0 -19.1
v 42.7 -19.1 -17.7
v 32.7 -35.4 -13.5
v 17.7 -46.2 -7.32
v 0 -50 0
v 0 50 0
v 19.1 46.2 -4.69e-15
v 35.4 35.4 -8.66e-15
v 46.2 19.1 -1.13e-14
v 50 0 -1.22e-14
v 46.2 -19.1 -1.13e-14
v 35.4 -35.4 -8.66e-15
v 19.1 -46.2 -4.69e-15
v 0 -50 0
v -10.4 -48.9 0
v -20.3 -45.7 0
v -29.4 -40.5 0
v -37.2 -33.5 0
v -43.3 -25 0
v -47.6 -15.5 0
v -49.7 -5.23 0
v -49.7 5.23 0
v -47.6 15.5 0
v -43.3 25 0
v -37.2 33.5 0
v -29.4 40.5 0
v -20.3 45.7 0
v -10.4 48.9 0
v 0 50 0
v 19.1 46.2 -4.69e-15
v 35.4 35.4 -8.66e-15
v 46.2 19.1 -1.13e-14
v 50 0 -1.22e-14
v 46.2 -19.1 -1.13e-14
v 35.4 -35.4 -8.66e-15
v 19.1 -46.2 -4.69e-15
v 0 -50 0
v -10.4 -48.9 0
v -20.3 -45.7 0
v -29.4 -40.5 0
v -37.2 -33.5 0
v -43.3 -25 0
v -47.6 -15.5 0
v -49.7 -5.23 0
v -49.7 5.23 0
v -47.6 15.5 0
v -43.3 25 0
v -37.2 33.5 0
v -29.4 40.5 0
v -20.3 45.7 0
v -10.4 48.9 0
v 40 -3.55e-15 0
v 39.3 7.28 0
v 37.2 14.7 0
v 33.5 21.9 0
v 28.3 28.3 0
v 21.9 33.5 0
v 14.7 37.2 0
v 7.28 39.3 0
v 2.45e-15 40 0
v -7.28 39.3 0
v -14.7 37.2 0
v -21.9 33.5 0
v -28.3 28.3 0
v -33.5 21.9 0
v -37.2 14.7 0
v -39.3 7.28 0
v -40 4.9e-15 0
v -39.3 -7.28 0
v -37.2 -14.7 0
v -33.5 -21.9 0
v -28.3 -28.3 0
v -21.9 -33.5 0
v -14.7 -37.2 0
v -7.28 -39.3 0
v -7.35e-15 -40 0
v 7.28 -39.3 0
v 14.7 -37.2 0
v 21.9 -33.5 0
v 28.3 -28.3 0
v 33.5 -21.9 0
v 37.2 -14.7 0
v 39.3 -7.28 0
v 0 0 -40
v 15.3 0 -37
v 28.3 0 -28.3
v 37 0 -15.3
v 40 -3.55e-15 0
v 0 0 -40
v 14.1 5.86 -37
v 26.1 10.8 -28.3
v 34.1 14.1 -15.3
v 0 0 -40
v 10.8 10.8 -37
v 20 20 -28.3
v 26.1 26.1 -15.3
v 0 0 -40
v 5.86 14.1 -37
v 10.8 26.1 -28.3
v 14.1 34.1 -15.3
v 0 0 -40
v 9.37e-16 15.3 -37
v 1.73e-15 28.3 -28.3
v 2.26e-15 37 -15.3
v 2.45e-15 40 0
v 0 0 -40
v -5.86 14.1 -37
v -10.8 26.1 -28.3
v -14.1 34.1 -15.3
v 0 0 -40
v -10.8 10.8 -37
v -20 20 -28.3
v -26.1 26.1 -15.3
v -28.3 28.3 0
v 0 0 -40
v -14.1 5.86 -37
v -26.1 10.8 -28.3
v -34.1 14.1 -15.3
v 0 0 -40
v -15.3 1.87e-15 -37
v -28.3 3.46e-15 -28.3
v -37 4.53e-15 -15.3
v -40 4.9e-15 0
v 0 0 -40
v -14.1 -5.86 -37
v -26.1 -10.8 -28.3
v -34.1 -14.1 -15.3
v 0 0 -40
v -10.8 -10.8 -37
v -20 -20 -28.3
v -26.1 -26.1 -15.3
v 0 0 -40
v -5.86 -14.1 -37
v -10.8 -26.1 -28.3
v -14.1 -34.1 -15.3
v 0 0 -40
v -1.64e-14 -15.3 -37
v -3.03e-14 -28.3 -28.3
v -3.96e-14 -37 -15.3
v -7.35e-15 -40 0
v 0 0 -40
v 5.86 -14.1 -37
v 10.8 -26.1 -28.3
v 14.1 -34.1 -15.3
v 0 0 -40
v 10.8 -10.8 -37
v 20 -20 -28.3
v 26.1 -26.1 -15.3
v 0 0 -40
v 14.1 -5.86 -37
v 26.1 -10.8 -28.3
v 34.1 -14.1 -15.3
v 0 0 -40
v 15.3 0 -37
v 28.3 0 -28.3
v 37 0 -15.3
v 40 -3.55e-15 0
v 39.3 -7.28 0
v 37.2 -14.7 0
v 33.5 -21.9 0
v 28.3 -28.3 0
v 21.9 -33.5 0
v 14.7 -37.2 0
v 7.28 -39.3 0
v -7.28 -39.3 0
v -14.7 -37.2 0
v -21.9 -33.5 0
v -28.3 -28.3 0
v -33.5 -21.9 0
v -37.2 -14.7 0
v -39.3 -7.28 0
v -39.3 7.28 0
v -37.2 14.7 0
v -33.5 21.9 0
v -21.9 33.5 0
v -14.7 37.2 0
v -7.28 39.3 0
v 7.28 39.3 0
v 14.7 37.2 0
v 21.9 33.5 0
v 28.3 28.3 0
v 33.5 21.9 0
v 37.2 14.7 0
v 39.3 7.28 0
vt 0 0
vt 0 0.489
vt 0.0609 0
vt 0.0609 0.0611
vt 0.0609 0.122
vt 0.0609 0.183
vt 0.0609 0.244
vt 0.0609 0.306
vt 0.0609 0.367
vt 0.0609 0.428
vt 0.0609 0.489
vt 0.122 0
vt 0.122 0.0611
vt 0.122 0.122
vt 0.122 0.183
vt 0.122 0.244
vt 0.122 0.306
vt 0.122 0.367
vt 0.122 0.428
vt 0.122 0.489
vt 0.183 0
vt 0.183 0.0611
vt 0.183 0.122
vt 0.183 0.183
vt 0.183 0.244
vt 0.183 0.306
vt 0.183 0.367
vt 0.183 0.428
vt 0.183 0.489
vt 0.244 0
vt 0.244 0.0611
vt 0.244 0.122
vt 0.244 0.183
vt 0.244 0.244
vt 0.244 0.306
vt 0.244 0.367
vt 0.244 0.428
vt 0.244 0.489
vt 0.305 0
vt 0.305 0.0611
vt 0.305 0.122
vt 0.305 0.183
vt 0.305 0.244
vt 0.305 0.306
vt 0.305 0.367
vt 0.305 0.428
vt 0.305 0.489
vt 0.366 0
vt 0.366 0.0611
vt 0.366 0.122
vt 0.366 0.183
vt 0.366 0.244
vt 0.366 0.306
vt 0.366 0.367
vt 0.366 0.428
vt 0.366 0.489
vt 0.427 0
vt 0.427 0.0611
vt 0.427 0.122
vt 0.427 0.183
vt 0.427 0.244
vt 0.427 0.306
vt 0.427 0.367
vt 0.427 0.428
vt 0.427 0.489
vt 0.487 0
vt 0.487 0.0611
vt 0.487 0.122
vt 0.487 0.183
vt 0.487 0.244
vt 0.487 0.306
vt 0.487 0.367
vt 0.487 0.428
vt 0.487 0.489
vt 0 0.456
vt 0 0.424
vt 0 0.391
vt 0 0.359
vt 0 0.326
vt 0 0.293
vt 0 0.261
vt 0 0.228
vt 0 0.196
vt 0 0.163
vt 0 0.13
vt 0 0.0978
vt 0 0.0652
vt 0 0.0326
vt 0.644 0.00313
vt 0.704 0.0151
vt 0.754 0.049
vt 0.788 0.0998
vt 0.8 0.16
vt 0.788 0.22
vt 0.754 0.271
vt 0.704 0.304
vt 0.644 0.316
vt 0.612 0.313
vt 0.581 0.303
vt 0.552 0.286
vt 0.528 0.265
vt 0.509 0.238
vt 0.496 0.208
vt 0.489 0.176
vt 0.489 0.143
vt 0.496 0.111
vt 0.509 0.0814
vt 0.528 0.055
vt 0.552 0.033
vt 0.581 0.0167
vt 0.612 0.00656
vt 0.769 0.16
vt 0.767 0.137
vt 0.76 0.114
vt 0.748 0.0912
vt 0.732 0.0712
vt 0.712 0.0549
vt 0.69 0.0433
vt 0.667 0.0366
vt 0.644 0.0345
vt 0.621 0.0366
vt 0.598 0.0433
vt 0.576 0.0549
vt 0.556 0.0712
vt 0.54 0.0912
vt 0.528 0.114
vt 0.521 0.137
vt 0.519 0.16
vt 0.521 0.183
vt 0.528 0.206
vt 0.54 0.228
vt 0.556 0.248
vt 0.576 0.265
vt 0.598 0.276
vt 0.621 0.283
vt 0.644 0.285
vt 0.667 0.283
vt 0.69 0.276
vt 0.712 0.265
vt 0.732 0.248
vt 0.748 0.228
vt 0.76 0.206
vt 0.767 0.183
vt 0.999 0
vt 0.95 0
vt 0.901 0
vt 0.853 0
vt 0.804 0
vt 0.999 0.0488
vt 0.95 0.0488
vt 0.901 0.0488
vt 0.853 0.0488
vt 0.999 0.0976
vt 0.95 0.0976
vt 0.901 0.0976
vt 0.853 0.0976
vt 0.999 0.146
vt 0.95 0.146
vt 0.901 0.146
vt 0.853 0.146
vt 0.999 0.195
vt 0.95 0.195
vt 0.901 0.195
vt 0.853 0.195
vt 0.804 0.195
vt 0.999 0.244
vt 0.95 0.244
vt 0.901 0.244
vt 0.853 0.244
vt 0.999 0.293
vt 0.95 0.293
vt 0.901 0.293
vt 0.853 0.293
vt 0.804 0.293
vt 0.999 0.342
vt 0.95 0.342
vt 0.901 0.342
vt 0.853 0.342
vt 0.999 0.39
vt 0.95 0.39
vt 0.901 0.39
vt 0.853 0.39
vt 0.804 0.39
vt 0.999 0.439
vt 0.95 0.439
vt 0.901 0.439
vt 0.853 0.439
vt 0.999 0.488
vt 0.95 0.488
vt 0.901 0.488
vt 0.853 0.488
vt 0.999 0.537
vt 0.95 0.537
vt 0.901 0.537
vt 0.853 0.537
vt 0.999 0.586
vt 0.95 0.586
vt 0.901 0.586
vt 0.853 0.586
vt 0.804 0.586
vt 0.999 0.634
vt 0.95 0.634
vt 0.901 0.634
vt 0.853 0.634
vt 0.999 0.683
vt 0.95 0.683
vt 0.901 0.683
vt 0.853 0.683
vt 0.999 0.732
vt 0.95 0.732
vt 0.901 0.732
vt 0.853 0.732
vt 0.999 0.781
vt 0.95 0.781
vt 0.901 0.781
vt 0.853 0.781
vt 0.804 0.781
vt 0.804 0.758
vt 0.804 0.734
vt 0.804 0.709
vt 0.804 0.683
vt 0.804 0.658
vt 0.804 0.632
vt 0.804 0.608
vt 0.804 0.563
vt 0.804 0.539
vt 0.804 0.514
vt 0.804 0.488
vt 0.804 0.462
vt 0.804 0.437
vt 0.804 0.413
vt 0.804 0.368
vt 0.804 0.344
vt 0.804 0.318
vt 0.804 0.267
vt 0.804 0.242
vt 0.804 0.218
vt 0.804 0.172
vt 0.804 0.148
vt 0.804 0.123
vt 0.804 0.0976
vt 0.804 0.072
vt 0.804 0.0468
vt 0.804 0.0227
vn 0 1 0
vn 0 -1 0
vn 0 1 0
vn -0.354 0.924 -0.146
vn -0.653 0.707 -0.271
vn -0.854 0.383 -0.354
vn -0.924 0 -0.383
vn -0.854 -0.383 -0.354
vn -0.653 -0.707 -0.271
vn -0.354 -0.924 -0.146
vn 0 -1 0
vn 0 1 0
vn -0.271 0.924 -0.271
vn -0.5 0.707 -0.5
vn -0.653 0.383 -0.653
vn -0.707 0 -0.707
vn -0.653 -0.383 -0.653
vn -0.5 -0.707 -0.5
vn -0.271 -0.924 -0.271
vn 0 -1 0
vn 0 1 0
vn -0.146 0.924 -0.354
vn -0.271 0.707 -0.653
vn -0.354 0.383 -0.854
vn -0.383 0 -0.924
vn -0.354 -0.383 -0.854
vn -0.271 -0.707 -0.653
vn -0.146 -0.924 -0.354
vn 0 -1 0
vn 0 1 0
vn -7.03e-17 0.924 -0.383
vn -1.3e-16 0.707 -0.707
vn -1.7e-16 0.383 -0.924
vn -1.84e-16 0 -1
vn -1.7e-16 -0.383 -0.924
vn -1.3e-16 -0.707 -0.707
vn -7.03e-17 -0.924 -0.383
vn 0 -1 0
vn 0 1 0
vn 0.146 0.924 -0.354
vn 0.271 0.707 -0.653
vn 0.354 0.383 -0.854
vn 0.383 0 -0.924
vn 0.354 -0.383 -0.854
vn 0.271 -0.707 -0.653
vn 0.146 -0.924 -0.354
vn 0 -1 0
vn 0 1 0
vn 0.271 0.924 -0.271
vn 0.5 0.707 -0.5
vn 0.653 0.383 -0.653
vn 0.707 0 -0.707
vn 0.653 -0.383 -0.653
vn 0.5 -0.707 -0.5
vn 0.271 -0.924 -0.271
vn 0 -1 0
vn 0 1 0
vn 0.354 0.924 -0.146
vn 0.653 0.707 -0.271
vn 0.854 0.383 -0.354
vn 0.924 0 -0.383
vn 0.854 -0.383 -0.354
vn 0.653 -0.707 -0.271
vn 0.354 -0.924 -0.146
vn 0 -1 0
vn 0 1 0
vn 0.383 0.924 -9.37e-17
vn 0.707 0.707 -1.73e-16
vn 0.924 0.383 -2.26e-16
vn 1 0 -2.45e-16
vn 0.924 -0.383 -2.26e-16
vn 0.707 -0.707 -1.73e-16
vn 0.383 -0.924 -9.37e-17
vn 0 -1 0
vn -0.208 -0.978 2.55e-17
vn -0.407 -0.914 4.98e-17
vn -0.588 -0.809 7.2e-17
vn -0.743 -0.669 9.1e-17
vn -0.866 -0.5 1.06e-16
vn -0.951 -0.309 1.16e-16
vn -0.995 -0.105 1.22e-16
vn -0.995 0.105 1.22e-16
vn -0.951 0.309 1.16e-16
vn -0.866 0.5 1.06e-16
vn -0.743 0.669 9.1e-17
vn -0.588 0.809 7.2e-17
vn -0.407 0.914 4.98e-17
vn -0.208 0.978 2.55e-17
vn 0 0 1
vn 0 0 1
vn 0 0 1
vn 0 0 1
vn 0 0 1
vn 0 0 1
vn 0 0 1
vn 0 0 1
vn 0 0 1
vn 0 0 1
vn 0 0 1
vn 0 0 1
vn 0 0 1
vn 0 0 1
vn 0 0 1
vn 0 0 1
vn 0 0 1
vn 0 0 1
vn 0 0 1
vn 0 0 1
vn 0 0 1
vn 0 0 1
vn 0 0 1
vn 0 0 1
vn 0 0 1
vn 0 0 1
vn 0 0 1
vn 0 0 1
vn 0 0 1
vn 0 0 1
vn 0 0 1
vn 0 0 1
vn 0 0 1
vn 0 0 1
vn 0 0 1
vn 0 0 1
vn 0 0 1
vn 0 0 1
vn 0 0 1
vn 0 0 1
vn 0 0 1
vn 0 0 1
vn 0 0 1
vn 0 0 1
vn 0 0 1
vn 0 0 1
vn 0 0 1
vn 0 0 1
vn 0 0 1
vn 0 0 1
vn 0 0 1
vn 0 0 1
vn 0 0 1
vn 0 0 1
vn 0 0 1
vn 0 0 1
vn -0.383 0 0.924
vn -0.707 0 0.707
vn -0.924 0 0.383
vn -1 2.45e-16 0
vn 0 0 1
vn -0.354 -0.146 0.924
vn -0.653 -0.271 0.707
vn -0.854 -0.354 0.383
vn 0 0 1
vn -0.271 -0.271 0.924
vn -0.5 -0.5 0.707
vn -0.653 -0.653 0.383
vn 0 0 1
vn -0.146 -0.354 0.924
vn -0.271 -0.653 0.707
vn -0.354 -0.854 0.383
vn 0 0 1
vn -2.34e-17 -0.383 0.924
vn -4.33e-17 -0.707 0.707
vn -5.66e-17 -0.924 0.383
vn -6.12e-17 -1 0
vn 0 0 1
vn 0.146 -0.354 0.924
vn 0.271 -0.653 0.707
vn 0.354 -0.854 0.383
vn 0 0 1
vn 0.271 -0.271 0.924
vn 0.5 -0.5 0.707
vn 0.653 -0.653 0.383
vn 0.707 -0.707 0
vn 0 0 1
vn 0.354 -0.146 0.924
vn 0.653 -0.271 0.707
vn 0.854 -0.354 0.383
vn 0 0 1
vn 0.383 -4.69e-17 0.924
vn 0.707 -8.66e-17 0.707
vn 0.924 -1.13e-16 0.383
vn 1 -1.22e-16 0
vn 0 0 1
vn 0.354 0.146 0.924
vn 0.653 0.271 0.707
vn 0.854 0.354 0.383
vn 0 0 1
vn 0.271 0.271 0.924
vn 0.5 0.5 0.707
vn 0.653 0.653 0.383
vn 0 0 1
vn 0.146 0.354 0.924
vn 0.271 0.653 0.707
vn 0.354 0.854 0.383
vn 0 0 1
vn 4.1e-16 0.383 0.924
vn 7.58e-16 0.707 0.707
vn 9.9e-16 0.924 0.383
vn 1.07e-15 1 0
vn 0 0 1
vn -0.146 0.354 0.924
vn -0.271 0.653 0.707
vn -0.354 0.854 0.383
vn 0 0 1
vn -0.271 0.271 0.924
vn -0.5 0.5 0.707
vn -0.653 0.653 0.383
vn 0 0 1
vn -0.354 0.146 0.924
vn -0.653 0.271 0.707
vn -0.854 0.354 0.383
vn 0 0 1
vn -0.383 9.37e-17 0.924
vn -0.707 1.73e-16 0.707
vn -0.924 2.26e-16 0.383
vn -1 2.45e-16 0
vn -0.983 0.182 0
vn -0.93 0.368 0
vn -0.837 0.547 0
vn -0.707 0.707 0
vn -0.547 0.837 0
vn -0.368 0.93 0
vn -0.182 0.983 0
vn 0.182 0.983 0
vn 0.368 0.93 0
vn 0.547 0.837 0
vn 0.707 0.707 0
vn 0.837 0.547 0
vn 0.93 0.368 0
vn 0.983 0.182 0
vn 0.983 -0.182 0
vn 0.93 -0.368 0
vn 0.837 -0.547 0
vn 0.547 -0.837 0
vn 0.368 -0.93 0
vn 0.182 -0.983 0
vn -0.182 -0.983 0
vn -0.368 -0.93 0
vn -0.547 -0.837 0
vn -0.707 -0.707 0
vn -0.837 -0.547 0
vn -0.93 -0.368 0
vn -0.983 -0.182 0
f 13/13/13 4/4/4 3/3/3
f 14/14/14 5/5/5 4/4/4 13/13/13
f 15/15/15 6/6/6 5/5/5 14/14/14
f 16/16/16 7/7/7 6/6/6 15/15/15
f 17/17/17 8/8/8 7/7/7 16/16/16
f 18/18/18 9/9/9 8/8/8 17/17/17
f 19/19/19 10/10/10 9/9/9 18/18/18
f 20/20/20 10/10/10 19/19/19
f 22/22/22 13/13/13 12/12/12
f 23/23/23 14/14/14 13/13/13 22/22/22
f 24/24/24 15/15/15 14/14/14 23/23/23
f 25/25/25 16/16/16 15/15/15 24/24/24
f 26/26/26 17/17/17 16/16/16 25/25/25
f 27/27/27 18/18/18 17/17/17 26/26/26
f 28/28/28 19/19/19 18/18/18 27/27/27
f 29/29/29 19/19/19 28/28/28
f 31/31/31 22/22/22 21/21/21
f 32/32/32 23/23/23 22/22/22 31/31/31
f 33/33/33 24/24/24 23/23/23 32/32/32
f 34/34/34 25/25/25 24/24/24 33/33/33
f 35/35/35 26/26/26 25/25/25 34/34/34
f 36/36/36 27/27/27 26/26/26 35/35/35
f 37/37/37 28/28/28 27/27/27 36/36/36
f 38/38/38 28/28/28 37/37/37
f 40/40/40 31/31/31 30/30/30
f 41/41/41 32/32/32 31/31/31 40/40/40
f 42/42/42 33/33/33 32/32/32 41/41/41
f 43/43/43 34/34/34 33/33/33 42/42/42
f 44/44/44 35/35/35 34/34/34 43/43/43
f 45/45/45 36/36/36 35/35/35 44/44/44
f 46/46/46 37/37/37 36/36/36 45/45/45
f 47/47/47 37/37/37 46/46/46
f 49/49/49 40/40/40 39/39/39
f 50/50/50 41/41/41 40/40/40 49/49/49
f 51/51/51 42/42/42 41/41/41 50/50/50
f 52/52/52 43/43/43 42/42/42 51/51/51
f 53/53/53 44/44/44 43/43/43 52/52/52
f 54/54/54 45/45/45 44/44/44 53/53/53
f 55/55/55 46/46/46 45/45/45 54/54/54
f 56/56/56 46/46/46 55/55/55
f 58/58/58 49/49/49 48/48/48
f 59/59/59 50/50/50 49/49/49 58/58/58
f 60/60/60 51/51/51 50/50/50 59/59/59
f 61/61/61 52/52/52 51/51/51 60/60/60
f 62/62/62 53/53/53 52/52/52 61/61/61
f 63/63/63 54/54/54 53/53/53 62/62/62
f 64/64/64 55/55/55 54/54/54 63/63/63
f 65/65/65 55/55/55 64/64/64
f 4/4/4 86/86/86 87/87/87
f 5/5/5 85/85/85 86/86/86
f 87/87/87 88/88/88 4/4/4
f 4/4/4 5/5/5 86/86/86
f 5/5/5 6/6/6 84/84/84 85/85/85
f 83/83/83 84/84/84 6/6/6
f 3/3/3 4/4/4 88/88/88
f 82/82/82 83/83/83 6/6/6 7/7/7
f 80/80/80 81/81/81 7/7/7 8/8/8
f 80/80/80 8/8/8 79/79/79
f 81/81/81 82/82/82 7/7/7
f 9/9/9 77/77/77 78/78/78
f 78/78/78 79/79/79 9/9/9
f 10/10/10 76/76/76 77/77/77
f 76/76/76 10/10/10 75/75/75
f 58/58/58 66/66/66 67/67/67
f 60/60/60 59/59/59 68/68/68 69/69/69
f 59/59/59 58/58/58 67/67/67 68/68/68
f 69/69/69 70/70/70 61/61/61 60/60/60
f 70/70/70 71/71/71 62/62/62 61/61/61
f 75/75/75 10/10/10 11/11/11
f 63/63/63 62/62/62 71/71/71 72/72/72
f 77/77/77 9/9/9 10/10/10
f 64/64/64 63/63/63 72/72/72 73/73/73
f 73/73/73 65/65/65 64/64/64
f 79/79/79 8/8/8 9/9/9
f 119/119/119 118/118/118 90/90/90
f 117/117/117 90/90/90 118/118/118
f 89/89/89 119/119/119 90/90/90
f 121/121/121 120/120/120 89/89/89
f 119/119/119 89/89/89 120/120/120
f 111/111/111 121/121/121 89/89/89
f 114/114/114 113/113/113 92/92/92
f 93/93/93 92/92/92 113/113/113
f 115/115/115 114/114/114 92/92/92
f 90/90/90 117/117/117 91/91/91
f 116/116/116 91/91/91 117/117/117
f 91/91/91 116/116/116 115/115/115
f 115/115/115 92/92/92 91/91/91
f 110/110/110 122/122/122 111/111/111
f 121/121/121 111/111/111 122/122/122
f 123/123/123 122/122/122 110/110/110
f 124/124/124 123/123/123 109/109/109
f 110/110/110 109/109/109 123/123/123
f 125/125/125 124/124/124 108/108/108
f 109/109/109 108/108/108 124/124/124
f 106/106/106 127/127/127 126/126/126
f 107/107/107 126/126/126 125/125/125
f 106/106/106 126/126/126 107/107/107
f 104/104/104 128/128/128 105/105/105
f 127/127/127 106/106/106 105/105/105
f 127/127/127 105/105/105 128/128/128
f 108/108/108 107/107/107 125/125/125
f 143/143/143 93/93/93 112/112/112
f 94/94/94 93/93/93 143/143/143
f 113/113/113 112/112/112 93/93/93
f 94/94/94 143/143/143 142/142/142
f 141/141/141 140/140/140 95/95/95
f 141/141/141 94/94/94 142/142/142
f 95/95/95 94/94/94 141/141/141
f 96/96/96 95/95/95 139/139/139
f 140/140/140 139/139/139 95/95/95
f 138/138/138 96/96/96 139/139/139
f 137/137/137 96/96/96 138/138/138
f 135/135/135 97/97/97 136/136/136
f 137/137/137 136/136/136 97/97/97
f 137/137/137 97/97/97 96/96/96
f 101/101/101 131/131/131 102/102/102
f 102/102/102 131/131/131 130/130/130
f 103/103/103 129/129/129 104/104/104
f 129/129/129 128/128/128 104/104/104
f 130/130/130 129/129/129 103/103/103
f 103/103/103 102/102/102 130/130/130
f 101/101/101 132/132/132 131/131/131
f 98/98/98 135/135/135 134/134/134
f 97/97/97 135/135/135 98/98/98
f 99/99/99 98/98/98 134/134/134
f 101/101/101 100/100/100 132/132/132
f 133/133/133 132/132/132 100/100/100
f 133/133/133 100/100/100 99/99/99
f 99/99/99 134/134/134 133/133/133
f 150/150/150 144/144/144 145/145/145
f 151/151/151 150/150/150 145/145/145 146/146/146
f 152/152/152 151/151/151 146/146/146 147/147/147
f 154/154/154 149/149/149 150/150/150
f 155/155/155 154/154/154 150/150/150 151/151/151
f 156/156/156 155/155/155 151/151/151 152/152/152
f 158/158/158 153/153/153 154/154/154
f 159/159/159 158/158/158 154/154/154 155/155/155
f 160/160/160 159/159/159 155/155/155 156/156/156
f 162/162/162 157/157/157 158/158/158
f 163/163/163 162/162/162 158/158/158 159/159/159
f 164/164/164 163/163/163 159/159/159 160/160/160
f 167/167/167 161/161/161 162/162/162
f 168/168/168 167/167/167 162/162/162 163/163/163
f 169/169/169 168/168/168 163/163/163 164/164/164
f 171/171/171 166/166/166 167/167/167
f 172/172/172 171/171/171 167/167/167 168/168/168
f 173/173/173 172/172/172 168/168/168 169/169/169
f 176/176/176 170/170/170 171/171/171
f 177/177/177 176/176/176 171/171/171 172/172/172
f 178/178/178 177/177/177 172/172/172 173/173/173
f 180/180/180 175/175/175 176/176/176
f 181/181/181 180/180/180 176/176/176 177/177/177
f 182/182/182 181/181/181 177/177/177 178/178/178
f 185/185/185 179/179/179 180/180/180
f 186/186/186 185/185/185 180/180/180 181/181/181
f 187/187/187 186/186/186 181/181/181 182/182/182
f 189/189/189 184/184/184 185/185/185
f 190/190/190 189/189/189 185/185/185 186/186/186
f 191/191/191 190/190/190 186/186/186 187/187/187
f 193/193/193 188/188/188 189/189/189
f 194/194/194 193/193/193 189/189/189 190/190/190
f 195/195/195 194/194/194 190/190/190 191/191/191
f 197/197/197 192/192/192 193/193/193
f 198/198/198 197/197/197 193/193/193 194/194/194
f 199/199/199 198/198/198 194/194/194 195/195/195
f 202/202/202 196/196/196 197/197/197
f 203/203/203 202/202/202 197/197/197 198/198/198
f 204/204/204 203/203/203 198/198/198 199/199/199
f 206/206/206 201/201/201 202/202/202
f 207/207/207 206/206/206 202/202/202 203/203/203
f 208/208/208 207/207/207 203/203/203 204/204/204
f 210/210/210 205/205/205 206/206/206
f 211/211/211 210/210/210 206/206/206 207/207/207
f 212/212/212 211/211/211 207/207/207 208/208/208
f 214/214/214 209/209/209 210/210/210
f 215/215/215 214/214/214 210/210/210 211/211/211
f 216/216/216 215/215/215 211/211/211 212/212/212
f 147/147/147 244/244/244 243/243/243 152/152/152
f 242/242/242 152/152/152 243/243/243
f 147/147/147 148/148/148 244/244/244
f 152/152/152 242/242/242 241/241/241 156/156/156
f 156/156/156 241/241/241 240/240/240 160/160/160
f 160/160/160 239/239/239 238/238/238 164/164/164
f 169/169/169 235/235/235 174/174/174 173/173/173
f 173/173/173 174/174/174 234/234/234 178/178/178
f 164/164/164 237/237/237 236/236/236 169/169/169
f 178/178/178 233/233/233 232/232/232 182/182/182
f 164/164/164 238/238/238 165/165/165
f 239/239/239 160/160/160 240/240/240
f 169/169/169 236/236/236 235/235/235
f 233/233/233 178/178/178 234/234/234
f 237/237/237 164/164/164 165/165/165
f 232/232/232 183/183/183 182/182/182
f 231/231/231 182/182/182 183/183/183
f 182/182/182 231/231/231 230/230/230 187/187/187
f 187/187/187 229/229/229 228/228/228 191/191/191
f 187/187/187 230/230/230 229/229/229
f 191/191/191 228/228/228 227/227/227 195/195/195
f 195/195/195 226/226/226 225/225/225 199/199/199
f 204/204/204 222/222/222 221/221/221 208/208/208
f 208/208/208 221/221/221 220/220/220 212/212/212
f 199/199/199 224/224/224 223/223/223 204/204/204
f 212/212/212 219/219/219 218/218/218 216/216/216
f 195/195/195 227/227/227 226/226/226
f 199/199/199 225/225/225 200/200/200
f 199/199/199 200/200/200 224/224/224
f 204/204/204 223/223/223 222/222/222
f 212/212/212 220/220/220 219/219/219
f 216/216/216 218/218/218 217/217/217
