# Rhino

o object_1
usemtl beige
usemtl jaunePale
usemtl orangeClair

v 1301.033447265625 0 587.9171142578125
v 1301.033447265625 400 587.9171142578125
v 1446.487426757813 0 587.9171142578125
v 1446.487426757813 400 587.9171142578125
v 1446.487426757813 200 587.9171142578125
v 1446.487426757813 0 587.9171142578125
v 1446.487426757813 400 587.9171142578125
v 1423.467651367188 0 557.9171142578125
v 1423.467651367188 400 557.9171142578125
v 1400.447875976563 0 527.9171142578125
v 1400.447875976563 400 527.9171142578125
v 1446.487426757813 200 587.9171142578125
v 1400.447875976563 200 527.9171142578125
v 1400.447875976563 0 527.9171142578125
v 1400.447875976563 400 527.9171142578125
v 623.7855224609375 0 527.9171142578125
v 623.7855224609375 400 527.9171142578125
v 1400.447875976563 200 527.9171142578125
v 623.7855224609375 200 527.9171142578125
v 623.7855224609375 0 527.9171142578125
v 623.7855224609375 400 527.9171142578125
v 600.7657470703125 0 557.9171142578125
v 600.7657470703125 400 557.9171142578125
v 577.7459106445313 0 587.9171142578125
v 577.7459106445313 400 587.9171142578125
v 623.7855224609375 200 527.9171142578125
v 577.7459106445313 200 587.9171142578125
v 577.7459106445313 0 587.9171142578125
v 577.7459106445313 400 587.9171142578125
v 723.1998901367188 0 587.9171142578125
v 723.1998901367188 400 587.9171142578125
v 577.7459106445313 200 587.9171142578125
v 577.7459106445313 0 587.9171142578125
v 577.7459106445313 400 587.9171142578125
v 1446.487426757813 0 587.9171142578125
v 1446.487426757813 400 587.9171142578125
v 1301.033447265625 0 587.9171142578125
v 723.1998901367188 0 587.9171142578125
v 1012.11669921875 0 587.9171142578125
v 1301.033447265625 400 587.9171142578125
v 1012.11669921875 400 587.9171142578125
v 723.1998901367188 400 587.9171142578125
v 577.7459106445313 400 587.9171142578125
v 600.7657470703125 400 557.9171142578125
v 623.7855224609375 400 527.9171142578125
v 1446.487426757813 400 587.9171142578125
v 1423.467651367188 400 557.9171142578125
v 1400.447875976563 400 527.9171142578125
v 723.1998901367188 400 587.9171142578125
v 1012.11669921875 400 587.9171142578125
v 1301.033447265625 400 587.9171142578125
v 577.7459106445313 0 587.9171142578125
v 600.7657470703125 0 557.9171142578125
v 623.7855224609375 0 527.9171142578125
v 1446.487426757813 0 587.9171142578125
v 1423.467651367188 0 557.9171142578125
v 1400.447875976563 0 527.9171142578125
v 723.1998901367188 0 587.9171142578125
v 1012.11669921875 0 587.9171142578125
v 1301.033447265625 0 587.9171142578125
vt 0.3138082027435303 0.6710411310195923
vt 0 0.6710411310195923
vt 0.3138082027435303 0.785152792930603
vt 0 0.785152792930603
vt 0.1569041013717651 0.785152792930603
vt 0.3138082027435303 0.1710411310195923
vt 0 0.1710411310195923
vt 0.3138082027435303 0.2007071226835251
vt 0 0.2007071226835251
vt 0.3138082027435303 0.2303731143474579
vt 0 0.2303731143474579
vt 0.1569041013717651 0.1710411310195923
vt 0.1569041013717651 0.2303731143474579
vt 0.3152730464935303 0.1590072214603424
vt 0.3152730464935303 0.5109038352966309
vt 0.99853515625 0.1590072214603424
vt 0.99853515625 0.5109038352966309
vt 0.3152730464935303 0.3349555432796478
vt 0.99853515625 0.3349555432796478
vt 0.3138082027435303 0
vt 0 0
vt 0.3138082027435303 0.02966599352657795
vt 0 0.02966599352657795
vt 0.3138082027435303 0.0593319870531559
vt 0 0.0593319870531559
vt 0.1569041013717651 0
vt 0.1569041013717651 0.0593319870531559
vt 0.3138082027435303 0.3420822620391846
vt 0 0.3420822620391846
vt 0.3138082027435303 0.4561938941478729
vt 0 0.4561938941478729
vt 0.1569041013717651 0.3420822620391846
vt 0.3152730464935303 0.57950359582901
vt 0.3152730464935303 0.8941022157669067
vt 0.99853515625 0.57950359582901
vt 0.99853515625 0.8941022157669067
vt 0.8841360807418823 0.57950359582901
vt 0.4296720921993256 0.57950359582901
vt 0.6569041013717651 0.57950359582901
vt 0.8841360807418823 0.8941022157669067
vt 0.6569041013717651 0.8941022157669067
vt 0.4296720921993256 0.8941022157669067
vt 0.3152730464935303 0.0795036107301712
vt 0.3152730464935303 0.1092443242669106
vt 0.3152730464935303 0.1389850378036499
vt 0.99853515625 0.0795036107301712
vt 0.99853515625 0.1092443242669106
vt 0.99853515625 0.1389850378036499
vt 0.4296720921993256 0.0795036107301712
vt 0.6569041013717651 0.0795036107301712
vt 0.8841360807418823 0.0795036107301712
vt 0.3152730464935303 0
vt 0.3152730464935303 0.0297407116740942
vt 0.3152730464935303 0.0594814233481884
vt 0.99853515625 0
vt 0.99853515625 0.0297407116740942
vt 0.99853515625 0.0594814233481884
vt 0.4296720921993256 0
vt 0.6569041013717651 0
vt 0.8841360807418823 0
vn 0 0 1
vn 0 0 1
vn 0 0 1
vn 0 0 1
vn 0 0 1
vn 0.7933533191680908 -0 -0.6087614297866821
vn 0.7933533191680908 -0 -0.6087614297866821
vn 0.7933533191680908 -0 -0.6087614297866821
vn 0.7933533191680908 -0 -0.6087614297866821
vn 0.7933533191680908 -0 -0.6087614297866821
vn 0.7933533191680908 -0 -0.6087614297866821
vn 0.7933533191680908 0 -0.6087614297866821
vn 0.7933533191680908 0 -0.6087614297866821
vn 0 0 -1
vn 0 0 -1
vn 0 0 -1
vn 0 0 -1
vn 0 0 -1
vn 0 0 -1
vn -0.7933533191680908 0 -0.6087614297866821
vn -0.7933533191680908 0 -0.6087614297866821
vn -0.7933533191680908 7.04639297282564e-17 -0.6087614297866821
vn -0.7933533191680908 7.04639297282564e-17 -0.6087614297866821
vn -0.7933533191680908 0 -0.6087614297866821
vn -0.7933533191680908 0 -0.6087614297866821
vn -0.7933533191680908 0 -0.6087614297866821
vn -0.7933533191680908 0 -0.6087614297866821
vn 0 0 1
vn 0 0 1
vn 0 0 1
vn 0 0 1
vn 0 0 1
vn -0 -0 -1
vn -0 -0 -1
vn -0 -0 -1
vn -0 -0 -1
vn -0 -0 -1
vn -0 -0 -1
vn -0 -0 -1
vn -0 -0 -1
vn -0 -0 -1
vn -0 -0 -1
vn 0 -1 -0
vn 0 -1 -0
vn 0 -1 -0
vn 0 -1 -0
vn 0 -1 -0
vn 0 -1 -0
vn 0 -1 -0
vn 0 -1 -0
vn 0 -1 -0
vn -0 1 0
vn -0 1 0
vn -0 1 0
vn -0 1 0
vn -0 1 0
vn -0 1 0
vn -0 1 0
vn -0 1 0
vn -0 1 0
f 1/1/1 3/3/3 5/5/5
f 5/5/5 4/4/4 2/2/2
f 2/2/2 1/1/1 5/5/5
f 7/7/7 12/12/12 9/9/9
f 12/12/12 6/6/6 8/8/8
f 10/10/10 13/13/13 8/8/8
f 13/13/13 11/11/11 9/9/9
f 9/9/9 12/12/12 13/13/13
f 12/12/12 8/8/8 13/13/13
f 15/15/15 18/18/18 19/19/19
f 18/18/18 14/14/14 16/16/16
f 16/16/16 19/19/19 18/18/18
f 19/19/19 17/17/17 15/15/15
f 21/21/21 26/26/26 23/23/23
f 26/26/26 20/20/20 22/22/22
f 24/24/24 27/27/27 22/22/22
f 27/27/27 25/25/25 23/23/23
f 23/23/23 26/26/26 27/27/27
f 26/26/26 22/22/22 27/27/27
f 28/28/28 30/30/30 32/32/32
f 29/29/29 32/32/32 31/31/31
f 30/30/30 31/31/31 32/32/32
f 37/37/37 36/36/36 35/35/35
f 33/33/33 42/42/42 38/38/38
f 38/38/38 41/41/41 39/39/39
f 39/39/39 41/41/41 37/37/37
f 40/40/40 37/37/37 41/41/41
f 41/41/41 38/38/38 42/42/42
f 42/42/42 33/33/33 34/34/34
f 36/36/36 37/37/37 40/40/40
f 48/48/48 47/47/47 44/44/44 45/45/45
f 49/49/49 44/44/44 50/50/50
f 50/50/50 47/47/47 51/51/51
f 51/51/51 47/47/47 46/46/46
f 44/44/44 49/49/49 43/43/43
f 47/47/47 50/50/50 44/44/44
f 57/57/57 54/54/54 53/53/53 56/56/56
f 58/58/58 59/59/59 53/53/53
f 59/59/59 60/60/60 56/56/56
f 60/60/60 55/55/55 56/56/56
f 53/53/53 52/52/52 58/58/58
f 56/56/56 53/53/53 59/59/59
