# Rhino

v -5 -5 -100
v -5 -5 100
v 5 -5 -100
v 5 -5 100
v 5 -5 -100
v 5 -5 100
v 5 5 -100
v 5 5 100
v 5 5 -100
v 5 5 100
v -5 5 -100
v -5 5 100
v -5 5 -100
v -5 5 100
v -5 -5 -100
v -5 -5 100
v -5 -5 -100
v 5 -5 -100
v 5 5 -100
v -5 5 -100
v -5 -5 100
v 5 -5 100
v 5 5 100
v -5 5 100
vt 0 0
vt 0 1
vt 0.2083331644535065 0
vt 0.2083331644535065 1
vt 0.2083331644535065 0
vt 0.2083331644535065 1
vt 0.4166663289070129 0
vt 0.4166663289070129 1
vt 0.4166663289070129 0
vt 0.4166663289070129 1
vt 0.624999463558197 0
vt 0.624999463558197 1
vt 0.624999463558197 0
vt 0.624999463558197 1
vt 0.8333326578140259 0
vt 0.8333326578140259 1
vt 0.8333334922790527 0.05000000074505806
vt 1 0.05000000074505806
vt 1 0
vt 0.8333334922790527 0
vt 0.8333334922790527 0.949999988079071
vt 1 0.949999988079071
vt 1 1
vt 0.8333334922790527 1
vn 0 -1 0
vn 0 -1 0
vn 0 -1 0
vn 0 -1 0
vn 1 0 0
vn 1 0 0
vn 1 0 0
vn 1 0 0
vn 0 1 0
vn 0 1 0
vn 0 1 0
vn 0 1 0
vn -1 0 0
vn -1 0 0
vn -1 0 0
vn -1 0 0
vn 0 0 -1
vn 0 0 -1
vn 0 0 -1
vn 0 0 -1
vn 0 0 1
vn 0 0 1
vn 0 0 1
vn 0 0 1
f 1/1/1 3/3/3 4/4/4 2/2/2
f 5/5/5 7/7/7 8/8/8 6/6/6
f 9/9/9 11/11/11 12/12/12 10/10/10
f 13/13/13 15/15/15 16/16/16 14/14/14
f 18/18/18 17/17/17 20/20/20
f 20/20/20 19/19/19 18/18/18
f 22/22/22 24/24/24 21/21/21
f 24/24/24 22/22/22 23/23/23
